HIERARCHY
ROOT Hips
{
 OFFSET 0.000000 0.000000 0.000000
 CHANNELS 6 Xposition Yposition Zposition Yrotation Xrotation Zrotation
 JOINT Chest
 {
  OFFSET 0.000000 9.581000 -0.001100
  CHANNELS 3 Yrotation Xrotation Zrotation
  JOINT Chest2
  {
   OFFSET 0.000000 9.561100 0.002200
   CHANNELS 3 Yrotation Xrotation Zrotation
   JOINT Chest3
   {
    OFFSET 0.000000 9.521100 0.000000
    CHANNELS 3 Yrotation Xrotation Zrotation
    JOINT Chest4
    {
     OFFSET 0.000000 9.511400 0.000000
     CHANNELS 3 Yrotation Xrotation Zrotation
     JOINT Neck
     {
      OFFSET 0.000000 14.375100 0.000000
      CHANNELS 3 Yrotation Xrotation Zrotation
      JOINT Head
      {
       OFFSET 0.000000 8.901200 0.004600
       CHANNELS 3 Yrotation Xrotation Zrotation
       End Site
       {
        OFFSET 0.000000 16.962200 0.002400
       }
      }
     }
     JOINT RightCollar
     {
      OFFSET -2.920100 9.518800 0.000000
      CHANNELS 3 Yrotation Xrotation Zrotation
      JOINT RightShoulder
      {
       OFFSET -13.664500 0.000000 0.000000
       CHANNELS 3 Yrotation Xrotation Zrotation
       JOINT RightElbow
       {
        OFFSET 0.000000 -29.999200 0.000000
        CHANNELS 3 Yrotation Xrotation Zrotation
        JOINT RightWrist
        {
         OFFSET 0.000000 -24.253600 0.000000
         CHANNELS 3 Yrotation Xrotation Zrotation
         End Site
         {
          OFFSET 0.000000 -17.918900 0.000000
         }
        }
       }
      }
     }
     JOINT LeftCollar
     {
      OFFSET 2.920100 9.518800 0.000000
      CHANNELS 3 Yrotation Xrotation Zrotation
      JOINT LeftShoulder
      {
       OFFSET 13.664500 0.000000 0.000000
       CHANNELS 3 Yrotation Xrotation Zrotation
       JOINT LeftElbow
       {
        OFFSET 0.000000 -29.999200 0.000000
        CHANNELS 3 Yrotation Xrotation Zrotation
        JOINT LeftWrist
        {
         OFFSET 0.000000 -24.253600 0.000000
         CHANNELS 3 Yrotation Xrotation Zrotation
         End Site
         {
          OFFSET 0.000000 -17.918900 0.000000
         }
        }
       }
      }
     }
    }
   }
  }
 }
 JOINT RightHip
 {
  OFFSET -7.797300 0.005300 0.000500
  CHANNELS 3 Yrotation Xrotation Zrotation
  JOINT RightKnee
  {
   OFFSET 0.000000 -40.663400 -0.000500
   CHANNELS 3 Yrotation Xrotation Zrotation
   JOINT RightAnkle
   {
    OFFSET 0.000000 -39.523700 -0.000900
    CHANNELS 3 Yrotation Xrotation Zrotation
    JOINT RightToe
    {
     OFFSET 0.000000 -6.418000 14.485300
     CHANNELS 3 Yrotation Xrotation Zrotation
     End Site
     {
      OFFSET 0.000000 -1.465200 6.326400
     }
    }
   }
  }
 }
 JOINT LeftHip
 {
  OFFSET 7.797300 0.005300 0.000500
  CHANNELS 3 Yrotation Xrotation Zrotation
  JOINT LeftKnee
  {
   OFFSET 0.000000 -40.663400 -0.000500
   CHANNELS 3 Yrotation Xrotation Zrotation
   JOINT LeftAnkle
   {
    OFFSET 0.000000 -39.523700 -0.000900
    CHANNELS 3 Yrotation Xrotation Zrotation
    JOINT LeftToe
    {
     OFFSET 0.000000 -6.418000 14.485300
     CHANNELS 3 Yrotation Xrotation Zrotation
     End Site
     {
      OFFSET 0.000000 -1.465200 6.326400
     }
    }
   }
  }
 }
}
MOTION
Frames: 7
Frame Time: 0.008333
0.000000 86.422400 0.000000 0.000000 -5.767877 0.000000 0.000000 11.653817 0.000000 0.000000 -5.885947 0.000000 0.000000 -0.000000 0.000000 0.000000 -0.000000 0.000000 0.000000 12.528835 0.000000 0.000000 0.711642 0.000000 0.000000 -0.000000 0.000000 0.000000 0.000000 -90.000000 0.000000 -2.309062 0.000000 0.000000 2.309062 0.000000 0.000000 -0.000000 0.000000 0.000000 -0.000000 90.000000 0.000000 -2.309062 0.000000 0.000000 2.309062 0.000000 0.000000 8.520406 0.000000 0.000000 1.905762 0.000000 -0.000000 -4.658285 0.000000 0.000000 -0.000000 0.000000 0.000000 8.520406 0.000000 0.000000 1.905762 0.000000 -0.000000 -4.658285 0.000000 0.000000 -0.000000 0.000000
-15.294961 126.888148 17.376896 -179.404218 -47.682778 -4.850799 2.023800 26.542512 3.883486 0.209001 4.536981 0.579108 0.351931 7.180292 0.932164 1.493677 21.718828 3.061758 -0.804131 18.701078 -3.947059 0.038528 -5.905138 -4.027778 1.504564 2.008688 2.850242 4.768389 -11.736466 -11.561451 -122.083714 -66.610021 166.833911 6.626873 40.119860 1.359802 -10.594286 -0.326511 -0.651059 -7.141790 -12.159601 8.151368 61.257366 -60.667050 -103.657916 3.934811 16.978809 12.933182 -19.426839 -8.518748 0.544311 22.680640 81.257327 36.202711 25.804253 -24.471019 18.783599 0.006101 -0.002507 0.002703 15.037657 -12.205379 -5.385826 5.082456 63.878388 -11.968693 1.883562 -2.491855 14.990599 0.001981 -0.010119 0.000878
-15.292565 126.887585 17.378107 -179.417940 -47.679735 -4.856123 2.032411 26.524155 3.900209 0.211232 4.539824 0.576772 0.356414 7.180892 0.936865 1.496298 21.716668 3.065880 -0.788841 18.677195 -3.927247 0.054244 -5.946477 -4.001539 1.501656 1.993671 2.850401 4.804060 -11.755193 -11.566739 -122.068437 -66.623124 166.787232 6.609140 40.141402 1.352893 -10.596845 -0.342770 -0.643371 -7.137530 -12.143427 8.133869 61.257524 -60.678122 -103.653652 3.922246 16.977246 12.933969 -19.417149 -8.517992 0.557588 22.682113 81.258132 36.208838 25.809101 -24.466924 18.782287 0.007378 -0.001742 0.003269 15.034238 -12.185388 -5.363542 5.118149 63.885771 -11.912512 1.771594 -2.674629 14.817757 -0.001562 -0.017670 -0.000692
-15.292158 126.886964 17.379291 -179.420563 -47.677135 -4.856920 2.036233 26.516573 3.907132 0.207830 4.536650 0.577545 0.360503 7.182777 0.937511 1.494146 21.718686 3.064572 -0.768681 18.647379 -3.905242 0.048542 -5.943039 -4.000341 1.503602 1.970015 2.858341 4.822194 -11.758371 -11.570975 -122.070220 -66.626657 166.778591 6.601165 40.146332 1.346673 -10.596171 -0.359224 -0.633189 -7.135389 -12.153402 8.146356 61.261776 -60.676100 -103.651797 3.930479 16.976151 12.933516 -19.412945 -8.519154 0.559848 22.671700 81.256874 36.200056 25.798976 -24.472738 18.789150 0.004267 -0.004171 0.001890 15.027244 -12.163338 -5.353074 5.149853 63.893769 -11.864057 1.665038 -2.838676 14.668295 -0.002198 -0.021773 -0.000973
-15.289453 126.888300 17.379084 -179.435085 -47.690547 -4.861907 2.058638 26.523969 3.928891 0.207657 4.535628 0.581258 0.363907 7.183936 0.935467 1.498069 21.714360 3.073595 -0.771601 18.639068 -3.901692 0.051379 -5.958394 -3.989783 1.493865 1.964360 2.857825 4.835200 -11.767529 -11.571657 -122.093330 -66.619783 166.789705 6.612446 40.126498 1.355653 -10.606911 -0.359090 -0.636964 -7.135507 -12.154267 8.148083 61.303254 -60.737682 -103.675521 3.970348 16.979711 12.923562 -19.398214 -8.500594 0.570637 22.679762 81.252255 36.210155 25.793699 -24.472177 18.791904 0.003828 -0.005607 0.001696 15.029644 -12.137815 -5.330457 5.240747 63.947763 -11.735962 1.528230 -3.017949 14.516703 0.012368 -0.014207 0.005479
-15.289535 126.888552 17.379701 -179.443933 -47.696696 -4.853594 2.067426 26.525949 3.929418 0.214353 4.532009 0.583501 0.364572 7.186859 0.936397 1.503039 21.715235 3.077083 -0.775451 18.625793 -3.891566 0.081233 -6.077076 -3.936180 1.480902 1.954119 2.865626 4.846745 -11.775263 -11.572317 -122.114179 -66.617098 166.801936 6.598334 40.129047 1.345737 -10.617824 -0.377486 -0.623363 -7.134342 -12.142372 8.139166 61.309188 -60.745587 -103.678608 3.963887 16.984665 12.919302 -19.389651 -8.497241 0.565480 22.703058 81.251198 36.230883 25.799593 -24.467852 18.792983 0.003598 -0.005402 0.001594 15.034992 -12.117454 -5.322219 5.231525 63.947229 -11.745309 1.489800 -3.085039 14.473180 0.014430 -0.009766 0.006393
-15.288778 126.888725 17.380594 -179.455763 -47.702523 -4.847755 2.078495 26.529614 3.933657 0.214790 4.532086 0.583677 0.372341 7.186069 0.939482 1.511248 21.713158 3.080632 -0.749630 18.564035 -3.858111 0.065610 -6.077508 -3.928549 1.476397 1.931513 2.879066 4.842843 -11.768357 -11.575868 -122.125220 -66.613419 166.814877 6.579303 40.132244 1.326216 -10.637729 -0.402991 -0.603357 -7.113218 -12.152486 8.138688 61.275109 -60.723951 -103.651038 3.973218 16.989920 12.913650 -19.379656 -8.488149 0.568432 22.692565 81.249738 36.225913 25.778185 -24.482171 18.793741 0.001791 -0.010290 0.000793 15.042523 -12.108641 -5.313842 5.269167 63.971402 -11.713901 1.441123 -3.154416 14.441174 0.013565 -0.008519 0.006009
